<svg fill="#fff" width="32" height="25" version="1.1" id="tagdescription" xmlns="http://www.w3.org/2000/svg" xmlns:xlink="http://www.w3.org/1999/xlink" x="0px"
	 y="0px" viewBox="0 0 231.6208 231.6159" enable-background="new 0 0 231.6208 231.6159" xml:space="preserve">
<g>
	<path fill="none" d="M137.5665,14.8503L9.6565,142.7607l79.1952,79.1992l127.914-127.9144
		c-8.8516-14.0428-6.9452-32.656,5.0236-44.6208L182.1917,9.8271C170.2189,21.7955,151.6057,23.7059,137.5665,14.8503z
		 M51.5977,129.1083l79.6796-79.6836l5.6564,5.656l-79.6796,79.6836L51.5977,129.1083z M79.8789,157.3935l-5.656-5.6564
		l54.2264-54.2304l5.6564,5.656L79.8789,157.3935z M102.5082,180.0183l-5.6565-5.6564l68.3672-68.3708l5.6564,5.656
		L102.5082,180.0183z M195.3633,52.2527c0,4.2736-1.664,8.2892-4.6876,11.3124c-3.1208,3.1212-7.2184,4.6796-11.3124,4.6796
		c-4.0976,0-8.1951-1.5584-11.3164-4.6796c-6.2344-6.242-6.2344-16.3904,0-22.6248c6.2424-6.2384,16.3868-6.246,22.6288,0
		C193.6993,43.9599,195.3633,47.9755,195.3633,52.2527z"/>
	<path fill="none" d="M173.7033,46.5963c-3.1172,3.1172-3.1172,8.1916,0,11.3128c3.1249,3.1172,8.1992,3.1172,11.3164,0
		c1.5116-1.512,2.3436-3.5196,2.3436-5.6564s-0.832-4.1444-2.3436-5.6564C181.9025,43.4791,176.8205,43.4755,173.7033,46.5963z"/>
	<path d="M230.4493,46.7723L184.8437,1.1667c-0.8124-0.8124-1.9256-1.2032-3.07-1.164c-1.1448,0.0704-2.2032,0.6252-2.9104,1.5272
		c-0.7148,0.9144-1.492,1.8008-2.328,2.6408c-9.9728,9.9688-25.8596,10.9608-36.9688,2.324c-1.59-1.238-3.8556-1.1052-5.2852,0.3284
		L1.1722,139.9323c-1.5629,1.5624-1.5629,4.094,0,5.6564l84.8515,84.8556c0.75,0.75,1.7656,1.1716,2.828,1.1716
		c1.0624,0,2.078-0.4216,2.828-1.1716L224.7929,97.3307c1.426-1.4256,1.5664-3.6912,0.3284-5.2852
		c-8.6408-11.1052-7.6448-26.996,2.324-36.9648c0.836-0.836,1.7149-1.6132,2.6252-2.32c0.91-0.7032,1.4688-1.762,1.5428-2.9104
		C231.6837,48.7059,231.2617,47.5847,230.4493,46.7723z M216.7657,94.0455L88.8517,221.9599L9.6565,142.7607l127.91-127.9104
		c14.0392,8.8556,32.6524,6.9452,44.6252-5.0232l39.5976,39.5976C209.8205,61.3895,207.9141,80.0027,216.7657,94.0455z"/>
	<path d="M168.0469,40.9403c-6.2344,6.2344-6.2344,16.3828,0,22.6248c3.1213,3.1212,7.2188,4.6796,11.3164,4.6796
		c4.094,0,8.1916-1.5584,11.3124-4.6796c3.0236-3.0232,4.6876-7.0388,4.6876-11.3124c0-4.2772-1.664-8.2928-4.6876-11.3124
		C184.4337,34.6943,174.2893,34.7019,168.0469,40.9403z M187.3633,52.2527c0,2.1368-0.832,4.1444-2.3436,5.6564
		c-3.1172,3.1172-8.1915,3.1172-11.3164,0c-3.1172-3.1212-3.1172-8.1956,0-11.3128c3.1172-3.1208,8.1992-3.1172,11.3164,0
		C186.5313,48.1083,187.3633,50.1159,187.3633,52.2527z"/>
	
		<rect x="37.9223" y="88.0949" transform="matrix(0.7071 -0.7071 0.7071 0.7071 -37.5108 93.6331)" width="112.6868" height="7.9991"/>
	
		<rect x="65.8188" y="123.4504" transform="matrix(0.7071 -0.7071 0.7071 0.7071 -59.6124 110.9905)" width="76.6908" height="7.9991"/>
	
		<rect x="85.5193" y="139.005" transform="matrix(0.7071 -0.7071 0.7071 0.7071 -61.9119 136.5426)" width="96.6885" height="7.9993"/>
</g>
</svg>
